<svg width="28" height="18" viewBox="0 0 28 18" fill="none" xmlns="http://www.w3.org/2000/svg">
<path d="M27.8309 8.31562C25.1947 3.35578 19.9758 0 14 0C8.02423 0 2.80387 3.35813 0.16914 8.31609C0.0579383 8.52821 0 8.76256 0 9.00023C0 9.23791 0.0579383 9.47226 0.16914 9.68438C2.80533 14.6442 8.02423 18 14 18C19.9758 18 25.1961 14.6419 27.8309 9.68391C27.9421 9.47179 28 9.23744 28 8.99977C28 8.76209 27.9421 8.52774 27.8309 8.31562ZM14 15.75C12.6155 15.75 11.2621 15.3541 10.111 14.6124C8.95985 13.8707 8.06265 12.8165 7.53283 11.5831C7.00302 10.3497 6.86439 8.99251 7.13449 7.68314C7.40459 6.37377 8.07127 5.17103 9.05024 4.22703C10.0292 3.28302 11.2765 2.64015 12.6344 2.3797C13.9922 2.11925 15.3997 2.25292 16.6788 2.76381C17.9579 3.2747 19.0511 4.13987 19.8203 5.2499C20.5895 6.35993 21 7.66498 21 9C21.0005 9.88654 20.8197 10.7645 20.4681 11.5836C20.1165 12.4028 19.6009 13.1471 18.9508 13.7739C18.3007 14.4008 17.5288 14.898 16.6793 15.2371C15.8298 15.5761 14.9194 15.7504 14 15.75ZM14 4.5C13.5835 4.50561 13.1696 4.56537 12.7697 4.67766C13.0993 5.10969 13.2576 5.64135 13.2156 6.17622C13.1736 6.71109 12.9343 7.21376 12.5409 7.59305C12.1476 7.97234 11.6263 8.20314 11.0716 8.24361C10.517 8.28407 9.9656 8.13151 9.51756 7.81359C9.26243 8.71996 9.30849 9.68066 9.64924 10.5605C9.98999 11.4403 10.6083 12.1949 11.4171 12.7181C12.2259 13.2413 13.1845 13.5068 14.158 13.4771C15.1314 13.4475 16.0707 13.1242 16.8437 12.5528C17.6166 11.9814 18.1843 11.1907 18.4668 10.2919C18.7493 9.39308 18.7324 8.43149 18.4184 7.54246C18.1045 6.65342 17.5093 5.8817 16.7167 5.33593C15.9241 4.79015 14.9739 4.49779 14 4.5Z" fill="#BABABA"/>
</svg>
