<svg width="122" height="42" viewBox="0 0 122 42" fill="none" xmlns="http://www.w3.org/2000/svg">
<path d="M55.0763 15.8702H52.3575V10.0494C52.3575 9.33031 52.2357 8.79249 51.992 8.43593C51.7543 8.07343 51.3769 7.89218 50.8599 7.89218C50.1646 7.89218 49.6595 8.14771 49.3445 8.65878C49.0296 9.16985 48.8721 10.0107 48.8721 11.1815V15.8702H46.1533V5.90435H48.2303L48.5958 7.17905H48.7473C49.0147 6.72147 49.401 6.36491 49.9061 6.10937C50.4113 5.84789 50.9907 5.71715 51.6444 5.71715C53.136 5.71715 54.1462 6.20445 54.6751 7.17905H54.9158C55.1832 6.71552 55.5755 6.35599 56.0925 6.10046C56.6154 5.84492 57.2038 5.71715 57.8574 5.71715C58.9866 5.71715 59.8393 6.00834 60.4158 6.59073C60.9982 7.16717 61.2894 8.09423 61.2894 9.37191V15.8702H58.5617V10.0494C58.5617 9.33031 58.4398 8.79249 58.1962 8.43593C57.9585 8.07343 57.5811 7.89218 57.0641 7.89218C56.3985 7.89218 55.8993 8.12988 55.5665 8.6053C55.2397 9.08071 55.0763 9.83544 55.0763 10.8695V15.8702Z" fill="#323232"/>
<path d="M70.4173 15.8702L69.8914 14.5153H69.8201C69.3625 15.0917 68.8901 15.4929 68.4027 15.7187C67.9214 15.9386 67.2915 16.0485 66.513 16.0485C65.5562 16.0485 64.8015 15.7752 64.2488 15.2284C63.7021 14.6817 63.4287 13.9032 63.4287 12.8929C63.4287 11.8352 63.7972 11.0567 64.5341 10.5575C65.2769 10.0523 66.3941 9.77304 67.8857 9.71955L69.6151 9.66607V9.22928C69.6151 8.21902 69.098 7.7139 68.064 7.7139C67.2677 7.7139 66.3317 7.95457 65.2561 8.43593L64.3558 6.59964C65.5027 5.99943 66.7745 5.69932 68.171 5.69932C69.5081 5.69932 70.5332 5.99052 71.2463 6.5729C71.9594 7.15528 72.316 8.04074 72.316 9.22928V15.8702H70.4173ZM69.6151 11.2528L68.5632 11.2884C67.7728 11.3122 67.1845 11.4548 66.7982 11.7163C66.4119 11.9778 66.2188 12.3759 66.2188 12.9108C66.2188 13.6774 66.6586 14.0607 67.5381 14.0607C68.168 14.0607 68.6702 13.8794 69.0446 13.5169C69.4249 13.1544 69.6151 12.6731 69.6151 12.0729V11.2528Z" fill="#323232"/>
<path d="M84.3232 15.8702H81.6044V10.0494C81.6044 9.33031 81.4767 8.79249 81.2211 8.43593C80.9656 8.07343 80.5585 7.89218 79.9999 7.89218C79.2392 7.89218 78.6895 8.14771 78.3508 8.65878C78.0121 9.16391 77.8427 10.0048 77.8427 11.1815V15.8702H75.1239V5.90435H77.2009L77.5664 7.17905H77.7179C78.021 6.6977 78.437 6.33519 78.9659 6.09154C79.5007 5.84195 80.1069 5.71715 80.7843 5.71715C81.9432 5.71715 82.8227 6.03211 83.4229 6.66204C84.0231 7.28602 84.3232 8.18931 84.3232 9.37191V15.8702Z" fill="#323232"/>
<path d="M91.3207 13.8824C91.7961 13.8824 92.3666 13.7784 93.0322 13.5704V15.5939C92.3548 15.897 91.5228 16.0485 90.5363 16.0485C89.4488 16.0485 88.6554 15.7752 88.1562 15.2284C87.663 14.6758 87.4164 13.8497 87.4164 12.7503V7.94566H86.1149V6.79575L87.6125 5.88652L88.3969 3.78281H90.1352V5.90435H92.9253V7.94566H90.1352V12.7503C90.1352 13.1366 90.2421 13.4218 90.4561 13.6061C90.6759 13.7903 90.9642 13.8824 91.3207 13.8824Z" fill="#323232"/>
<path d="M104.255 15.8702H101.536V10.0494C101.536 8.61124 101.001 7.89218 99.9317 7.89218C99.171 7.89218 98.6213 8.15068 98.2826 8.6677C97.9439 9.18471 97.7745 10.0226 97.7745 11.1815V15.8702H95.0557V2H97.7745V4.82575C97.7745 5.04563 97.7537 5.56264 97.7121 6.37679L97.6497 7.17905H97.7923C98.3985 6.20445 99.3612 5.71715 100.68 5.71715C101.851 5.71715 102.74 6.03211 103.346 6.66204C103.952 7.29196 104.255 8.19525 104.255 9.37191V15.8702Z" fill="#323232"/>
<path d="M114.114 15.8702L113.748 14.5955H113.606C113.315 15.0591 112.902 15.4186 112.367 15.6741C111.832 15.9237 111.223 16.0485 110.539 16.0485C109.369 16.0485 108.486 15.7365 107.892 15.1125C107.298 14.4826 107.001 13.5793 107.001 12.4027V5.90435H109.719V11.7252C109.719 12.4443 109.847 12.9851 110.103 13.3476C110.358 13.7041 110.765 13.8824 111.324 13.8824C112.084 13.8824 112.634 13.6298 112.973 13.1247C113.312 12.6136 113.481 11.7698 113.481 10.5931V5.90435H116.2V15.8702H114.114Z" fill="#323232"/>
<path d="M121.771 15.8702H119.052V2H121.771V15.8702Z" fill="#323232"/>
<path d="M53.2897 30.0672C53.2897 30.6438 53.202 31.1739 53.0266 31.6575C52.8512 32.1375 52.6036 32.5512 52.2837 32.8986C51.9638 33.246 51.5786 33.5165 51.1281 33.7099C50.681 33.8997 50.1857 33.9946 49.6423 33.9946C49.0989 33.9946 48.6036 33.8997 48.1565 33.7099C47.7094 33.5165 47.3259 33.246 47.006 32.8986C46.6862 32.5512 46.4385 32.1375 46.2631 31.6575C46.0877 31.1739 46 30.6438 46 30.0672C46 29.4905 46.0877 28.9622 46.2631 28.4822C46.4385 27.9987 46.6862 27.5832 47.006 27.2357C47.3259 26.8847 47.7094 26.6125 48.1565 26.4191C48.6036 26.2257 49.0989 26.1289 49.6423 26.1289C50.1857 26.1289 50.681 26.2257 51.1281 26.4191C51.5786 26.6125 51.9638 26.8847 52.2837 27.2357C52.6036 27.5832 52.8512 27.9987 53.0266 28.4822C53.202 28.9622 53.2897 29.4905 53.2897 30.0672ZM52.2631 30.0672C52.2631 29.5944 52.2012 29.1699 52.0773 28.7938C51.9535 28.4177 51.7781 28.1007 51.5511 27.8428C51.3241 27.5814 51.049 27.3808 50.7257 27.2411C50.4024 27.1014 50.0412 27.0316 49.6423 27.0316C49.2468 27.0316 48.8873 27.1014 48.564 27.2411C48.2407 27.3808 47.9639 27.5814 47.7334 27.8428C47.5064 28.1007 47.331 28.4177 47.2072 28.7938C47.0834 29.1699 47.0215 29.5944 47.0215 30.0672C47.0215 30.54 47.0834 30.9644 47.2072 31.3405C47.331 31.713 47.5064 32.03 47.7334 32.2915C47.9639 32.5494 48.2407 32.7482 48.564 32.8878C48.8873 33.024 49.2468 33.092 49.6423 33.092C50.0412 33.092 50.4024 33.024 50.7257 32.8878C51.049 32.7482 51.3241 32.5494 51.5511 32.2915C51.7781 32.03 51.9535 31.713 52.0773 31.3405C52.2012 30.9644 52.2631 30.54 52.2631 30.0672Z" fill="#818181"/>
<path d="M54.8155 33.914V29.2881L54.2377 29.2183C54.162 29.2004 54.1018 29.1735 54.0571 29.1377C54.0124 29.0983 53.99 29.0428 53.99 28.9711V28.5789H54.8155V28.133C54.8155 27.8214 54.8568 27.5456 54.9393 27.3056C55.0253 27.062 55.1457 26.8578 55.3004 26.6931C55.4552 26.5247 55.6427 26.3976 55.8628 26.3116C56.0829 26.2257 56.3305 26.1827 56.6057 26.1827C56.8396 26.1827 57.0562 26.2185 57.2557 26.2901L57.2299 26.7737C57.223 26.8596 57.1783 26.9062 57.0958 26.9134C57.0132 26.9205 56.8997 26.9241 56.7553 26.9241C56.5971 26.9241 56.4526 26.9456 56.3219 26.9886C56.1947 27.028 56.0846 27.096 55.9918 27.1927C55.9023 27.2895 55.8318 27.4184 55.7802 27.5796C55.7321 27.7372 55.708 27.9324 55.708 28.1652V28.5789H58.0657V28.278C58.0657 27.9449 58.1156 27.6405 58.2153 27.3647C58.315 27.0853 58.4646 26.8453 58.6641 26.6447C58.8636 26.4441 59.1112 26.2883 59.407 26.1773C59.7063 26.0663 60.0519 26.0107 60.444 26.0107C60.5747 26.0107 60.7088 26.0197 60.8464 26.0376C60.984 26.0555 61.1026 26.0824 61.2024 26.1182L61.1663 26.6179C61.1628 26.6537 61.1491 26.6788 61.125 26.6931C61.1044 26.7074 61.0751 26.7164 61.0373 26.7199C60.9995 26.7235 60.9513 26.7253 60.8928 26.7253C60.8378 26.7217 60.7742 26.7199 60.7019 26.7199C60.0897 26.7199 59.6461 26.8525 59.3709 27.1175C59.0958 27.379 58.9582 27.7748 58.9582 28.3049V28.5789H62.1155V33.914H61.1921V29.272H58.984V33.914H58.0657V29.272H55.7338V33.914H54.8155Z" fill="#818181"/>
<path d="M67.2611 29.4385C67.2336 29.4779 67.2061 29.5084 67.1785 29.5299C67.151 29.5514 67.1132 29.5621 67.065 29.5621C67.0135 29.5621 66.9567 29.5406 66.8948 29.4976C66.8329 29.4511 66.7555 29.4009 66.6626 29.3472C66.5732 29.2935 66.4614 29.2451 66.3273 29.2021C66.1966 29.1556 66.035 29.1323 65.8424 29.1323C65.5844 29.1323 65.3574 29.1807 65.1614 29.2774C64.9653 29.3705 64.8002 29.5066 64.6661 29.6857C64.5354 29.8648 64.4357 30.0815 64.3669 30.3358C64.3015 30.5901 64.2689 30.8749 64.2689 31.1901C64.2689 31.5196 64.305 31.8133 64.3772 32.0712C64.4494 32.3255 64.5509 32.5404 64.6816 32.7159C64.8157 32.8878 64.9756 33.0204 65.1614 33.1135C65.3505 33.203 65.562 33.2478 65.7959 33.2478C66.0195 33.2478 66.2035 33.221 66.3479 33.1672C66.4924 33.1099 66.6111 33.0472 66.7039 32.9792C66.8002 32.9111 66.8793 32.8502 66.9412 32.7965C67.0066 32.7392 67.0702 32.7105 67.1321 32.7105C67.2078 32.7105 67.2662 32.741 67.3075 32.8019L67.5655 33.1511C67.452 33.298 67.323 33.4233 67.1785 33.5272C67.0341 33.6311 66.8776 33.7188 66.7091 33.7905C66.544 33.8585 66.3703 33.9087 66.188 33.9409C66.0057 33.9731 65.82 33.9893 65.6308 33.9893C65.3041 33.9893 64.9997 33.9266 64.7177 33.8012C64.4391 33.6758 64.1966 33.495 63.9903 33.2586C63.7839 33.0186 63.6223 32.7249 63.5053 32.3774C63.3884 32.03 63.3299 31.6342 63.3299 31.1901C63.3299 30.7853 63.3832 30.411 63.4898 30.0672C63.5999 29.7233 63.7581 29.4278 63.9645 29.1807C64.1743 28.9299 64.4305 28.7347 64.7332 28.595C65.0393 28.4553 65.3901 28.3855 65.7856 28.3855C66.1536 28.3855 66.4769 28.4482 66.7555 28.5735C67.0375 28.6953 67.2869 28.869 67.5036 29.0947L67.2611 29.4385Z" fill="#818181"/>
<path d="M69.5212 28.4715V33.914H68.6028V28.4715H69.5212ZM69.7172 26.7629C69.7172 26.8561 69.6983 26.9438 69.6604 27.0262C69.6261 27.105 69.5779 27.1766 69.516 27.2411C69.4575 27.302 69.387 27.3503 69.3045 27.3862C69.2254 27.422 69.1411 27.4399 69.0517 27.4399C68.9623 27.4399 68.878 27.422 68.7989 27.3862C68.7232 27.3503 68.6562 27.302 68.5977 27.2411C68.5392 27.1766 68.4928 27.105 68.4584 27.0262C68.424 26.9438 68.4068 26.8561 68.4068 26.7629C68.4068 26.6698 68.424 26.582 68.4584 26.4997C68.4928 26.4137 68.5392 26.3403 68.5977 26.2794C68.6562 26.2149 68.7232 26.1648 68.7989 26.1289C68.878 26.0931 68.9623 26.0752 69.0517 26.0752C69.1411 26.0752 69.2254 26.0931 69.3045 26.1289C69.387 26.1648 69.4575 26.2149 69.516 26.2794C69.5779 26.3403 69.6261 26.4137 69.6604 26.4997C69.6983 26.582 69.7172 26.6698 69.7172 26.7629Z" fill="#818181"/>
<path d="M73.8623 31.4641C73.4393 31.4784 73.0781 31.5142 72.7789 31.5715C72.4831 31.6253 72.2407 31.6969 72.0515 31.7864C71.8658 31.876 71.7299 31.9816 71.6439 32.1034C71.5614 32.2252 71.5201 32.3613 71.5201 32.5118C71.5201 32.655 71.5425 32.7786 71.5872 32.8825C71.6319 32.9863 71.6921 33.0723 71.7677 33.1404C71.8469 33.2048 71.938 33.2532 72.0412 33.2854C72.1478 33.3141 72.2613 33.3284 72.3817 33.3284C72.5433 33.3284 72.6912 33.3123 72.8253 33.2801C72.9595 33.2442 73.085 33.1941 73.202 33.1296C73.3223 33.0651 73.4358 32.9881 73.5425 32.8986C73.6525 32.809 73.7591 32.707 73.8623 32.5923V31.4641ZM70.8959 29.2398C71.1848 28.9496 71.496 28.7329 71.8297 28.5897C72.1633 28.4464 72.533 28.3747 72.9388 28.3747C73.2312 28.3747 73.4909 28.4249 73.7179 28.5252C73.9449 28.6255 74.1357 28.7652 74.2905 28.9443C74.4453 29.1233 74.5622 29.34 74.6413 29.5944C74.7204 29.8487 74.76 30.1281 74.76 30.4325V33.914H74.3524C74.263 33.914 74.1942 33.8997 74.1461 33.8711C74.0979 33.8388 74.0601 33.7779 74.0326 33.6884L73.9294 33.1726C73.7918 33.3051 73.6577 33.4233 73.527 33.5272C73.3963 33.6275 73.2587 33.7135 73.1143 33.7851C72.9698 33.8531 72.815 33.9051 72.6499 33.9409C72.4883 33.9803 72.3077 34 72.1082 34C71.9053 34 71.7144 33.9713 71.5356 33.914C71.3567 33.8531 71.2003 33.7636 71.0661 33.6454C70.9354 33.5272 70.8305 33.3786 70.7514 33.1995C70.6758 33.0168 70.6379 32.8019 70.6379 32.5547C70.6379 32.3398 70.6947 32.1339 70.8082 31.9369C70.9217 31.7363 71.1057 31.559 71.3602 31.405C71.6147 31.251 71.9466 31.1256 72.3559 31.0289C72.7652 30.9286 73.2673 30.8713 73.8623 30.857V30.4325C73.8623 30.0099 73.7746 29.6911 73.5992 29.4762C73.4238 29.2577 73.1676 29.1484 72.8305 29.1484C72.6035 29.1484 72.4126 29.1789 72.2579 29.2398C72.1065 29.2971 71.9741 29.3633 71.8606 29.4385C71.7505 29.5102 71.6542 29.5764 71.5717 29.6373C71.4926 29.6946 71.4135 29.7233 71.3344 29.7233C71.2725 29.7233 71.2192 29.7072 71.1745 29.6749C71.1297 29.6391 71.0919 29.5961 71.061 29.546L70.8959 29.2398Z" fill="#818181"/>
<path d="M77.1081 26V33.914H76.1898V26H77.1081Z" fill="#818181"/>
<path d="M85.2355 27.4184C85.2045 27.4721 85.1701 27.5133 85.1323 27.542C85.0979 27.567 85.0549 27.5796 85.0033 27.5796C84.9448 27.5796 84.8761 27.5491 84.797 27.4882C84.7179 27.4274 84.6181 27.3611 84.4977 27.2895C84.3808 27.2142 84.2381 27.1462 84.0695 27.0853C83.9044 27.0244 83.7032 26.994 83.4659 26.994C83.2424 26.994 83.0446 27.0262 82.8726 27.0907C82.7041 27.1516 82.5614 27.2357 82.4444 27.3432C82.3309 27.4506 82.245 27.5778 82.1865 27.7246C82.128 27.8679 82.0988 28.0237 82.0988 28.1921C82.0988 28.407 82.1487 28.5861 82.2484 28.7293C82.3516 28.869 82.4857 28.989 82.6508 29.0893C82.8193 29.1896 83.0085 29.2774 83.2183 29.3526C83.4315 29.4242 83.6482 29.4994 83.8683 29.5782C84.0919 29.657 84.3086 29.7466 84.5184 29.8469C84.7316 29.9436 84.9208 30.0672 85.0859 30.2176C85.2544 30.368 85.3885 30.5525 85.4883 30.771C85.5914 30.9895 85.643 31.2581 85.643 31.5769C85.643 31.9136 85.588 32.2306 85.4779 32.5279C85.3679 32.8216 85.2062 33.0777 84.993 33.2962C84.7832 33.5147 84.5235 33.6866 84.214 33.812C83.9079 33.9373 83.5588 34 83.1667 34C82.6852 34 82.2484 33.9105 81.8563 33.7314C81.4642 33.5487 81.1289 33.3033 80.8503 32.9953L81.1392 32.501C81.1667 32.4616 81.1994 32.4294 81.2372 32.4043C81.2785 32.3756 81.3232 32.3613 81.3714 32.3613C81.4161 32.3613 81.4659 32.381 81.521 32.4204C81.5794 32.4562 81.6448 32.5028 81.717 32.5601C81.7892 32.6174 81.8718 32.6801 81.9646 32.7482C82.0575 32.8162 82.1624 32.8789 82.2793 32.9362C82.3997 32.9935 82.5356 33.0419 82.6869 33.0813C82.8382 33.1171 83.0085 33.135 83.1977 33.135C83.435 33.135 83.6465 33.101 83.8322 33.0329C84.0179 32.9649 84.1744 32.8699 84.3017 32.7482C84.4324 32.6228 84.5321 32.4741 84.6009 32.3022C84.6697 32.1303 84.7041 31.9387 84.7041 31.7273C84.7041 31.4945 84.6525 31.3047 84.5493 31.1578C84.4496 31.0074 84.3172 30.882 84.1521 30.7817C83.987 30.6814 83.7978 30.5973 83.5846 30.5292C83.3713 30.4576 83.1547 30.3859 82.9345 30.3143C82.7144 30.2391 82.4977 30.1531 82.2845 30.0564C82.0713 29.9597 81.8821 29.8343 81.717 29.6803C81.5519 29.5263 81.4178 29.3347 81.3146 29.1054C81.2149 28.8726 81.165 28.5861 81.165 28.2458C81.165 27.9736 81.2149 27.7103 81.3146 27.456C81.4178 27.2017 81.5657 26.976 81.7583 26.779C81.9543 26.582 82.1934 26.4244 82.4754 26.3062C82.7609 26.188 83.0876 26.1289 83.4556 26.1289C83.8683 26.1289 84.2432 26.197 84.5803 26.3331C84.9208 26.4692 85.22 26.6662 85.4779 26.9241L85.2355 27.4184Z" fill="#818181"/>
<path d="M88.2123 34C87.7996 34 87.4815 33.88 87.2579 33.64C87.0378 33.4 86.9277 33.0544 86.9277 32.6031V29.272H86.2983C86.2433 29.272 86.1969 29.2559 86.159 29.2236C86.1212 29.1878 86.1023 29.1341 86.1023 29.0625V28.681L86.9587 28.5682L87.1702 26.8865C87.1805 26.8328 87.2029 26.7898 87.2373 26.7576C87.2751 26.7217 87.3232 26.7038 87.3817 26.7038H87.846V28.5789H89.3576V29.272H87.846V32.5386C87.846 32.7679 87.8993 32.938 88.006 33.049C88.1126 33.1601 88.2501 33.2156 88.4187 33.2156C88.515 33.2156 88.5975 33.203 88.6663 33.178C88.7385 33.1493 88.8004 33.1189 88.852 33.0866C88.9036 33.0544 88.9466 33.0257 88.981 33.0007C89.0188 32.972 89.0515 32.9577 89.079 32.9577C89.1272 32.9577 89.1702 32.9881 89.208 33.049L89.4763 33.5057C89.3181 33.6597 89.1272 33.7815 88.9036 33.8711C88.6801 33.957 88.4496 34 88.2123 34Z" fill="#818181"/>
<path d="M92.4785 28.3855C92.8603 28.3855 93.2042 28.4518 93.5103 28.5843C93.8164 28.7168 94.0778 28.9049 94.2945 29.1484C94.5112 29.392 94.6763 29.6875 94.7898 30.0349C94.9067 30.3788 94.9652 30.7638 94.9652 31.1901C94.9652 31.6199 94.9067 32.0067 94.7898 32.3506C94.6763 32.6944 94.5112 32.9881 94.2945 33.2317C94.0778 33.4753 93.8164 33.6633 93.5103 33.7958C93.2042 33.9248 92.8603 33.9893 92.4785 33.9893C92.0933 33.9893 91.7459 33.9248 91.4364 33.7958C91.1303 33.6633 90.8689 33.4753 90.6522 33.2317C90.4355 32.9881 90.2687 32.6944 90.1518 32.3506C90.0383 32.0067 89.9815 31.6199 89.9815 31.1901C89.9815 30.7638 90.0383 30.3788 90.1518 30.0349C90.2687 29.6875 90.4355 29.392 90.6522 29.1484C90.8689 28.9049 91.1303 28.7168 91.4364 28.5843C91.7459 28.4518 92.0933 28.3855 92.4785 28.3855ZM92.4785 33.2424C92.9944 33.2424 93.3796 33.0634 93.6341 32.7052C93.8886 32.3434 94.0159 31.8402 94.0159 31.1954C94.0159 30.5471 93.8886 30.0421 93.6341 29.6803C93.3796 29.3186 92.9944 29.1377 92.4785 29.1377C92.2171 29.1377 91.9884 29.1842 91.7924 29.2774C91.5998 29.3705 91.4381 29.5048 91.3074 29.6803C91.1802 29.8558 91.0839 30.0725 91.0185 30.3304C90.9566 30.5847 90.9256 30.8731 90.9256 31.1954C90.9256 31.8402 91.0529 32.3434 91.3074 32.7052C91.5654 33.0634 91.9557 33.2424 92.4785 33.2424Z" fill="#818181"/>
<path d="M97.0018 29.5621C97.1669 29.1896 97.3698 28.8995 97.6105 28.6917C97.8513 28.4804 98.1454 28.3747 98.4927 28.3747C98.6028 28.3747 98.7077 28.3873 98.8074 28.4124C98.9106 28.4374 99.0018 28.4768 99.0809 28.5306L99.0138 29.2451C98.9932 29.3347 98.9416 29.3794 98.859 29.3794C98.8109 29.3794 98.7404 29.3687 98.6475 29.3472C98.5546 29.3257 98.4497 29.315 98.3328 29.315C98.1677 29.315 98.0198 29.34 97.8891 29.3902C97.7619 29.4403 97.6467 29.5156 97.5435 29.6158C97.4437 29.7126 97.3526 29.8343 97.27 29.9812C97.1909 30.1245 97.1187 30.2892 97.0534 30.4755V33.914H96.1299V28.4715H96.6561C96.7559 28.4715 96.8246 28.4912 96.8625 28.5306C96.9003 28.57 96.9261 28.638 96.9399 28.7347L97.0018 29.5621Z" fill="#818181"/>
<path d="M103.175 30.5991C103.175 30.377 103.144 30.1746 103.082 29.9919C103.023 29.8057 102.936 29.6463 102.819 29.5138C102.705 29.3777 102.566 29.2738 102.401 29.2021C102.236 29.1269 102.048 29.0893 101.838 29.0893C101.398 29.0893 101.049 29.2236 100.791 29.4923C100.537 29.7573 100.378 30.1263 100.316 30.5991H103.175ZM103.917 33.1511C103.804 33.2944 103.668 33.4197 103.51 33.5272C103.352 33.6311 103.181 33.717 102.999 33.7851C102.82 33.8531 102.635 33.9033 102.442 33.9355C102.249 33.9713 102.058 33.9893 101.869 33.9893C101.508 33.9893 101.175 33.9266 100.868 33.8012C100.566 33.6723 100.303 33.486 100.079 33.2424C99.859 32.9953 99.687 32.6908 99.5632 32.3291C99.4394 31.9673 99.3775 31.5518 99.3775 31.0826C99.3775 30.7029 99.4325 30.3483 99.5426 30.0188C99.6561 29.6893 99.8177 29.4045 100.028 29.1645C100.237 28.921 100.494 28.7311 100.796 28.595C101.099 28.4553 101.439 28.3855 101.818 28.3855C102.131 28.3855 102.42 28.441 102.684 28.552C102.953 28.6595 103.183 28.8171 103.376 29.0248C103.572 29.229 103.725 29.4833 103.835 29.7878C103.945 30.0887 104 30.4325 104 30.8193C104 30.9698 103.985 31.0701 103.954 31.1202C103.923 31.1704 103.864 31.1954 103.778 31.1954H100.285C100.296 31.5393 100.341 31.8384 100.42 32.0927C100.502 32.347 100.616 32.5601 100.76 32.732C100.905 32.9004 101.077 33.0275 101.276 33.1135C101.476 33.1959 101.699 33.2371 101.947 33.2371C102.177 33.2371 102.375 33.2102 102.54 33.1565C102.709 33.0992 102.853 33.0383 102.973 32.9738C103.094 32.9093 103.193 32.8502 103.273 32.7965C103.355 32.7392 103.426 32.7105 103.484 32.7105C103.56 32.7105 103.618 32.741 103.659 32.8019L103.917 33.1511Z" fill="#818181"/>
<path d="M-1.2517e-05 17.3431C-1.23179e-05 15.0656 0.448582 12.8104 1.32016 10.7062C2.19173 8.60204 3.46922 6.69015 5.07968 5.07969C6.69014 3.46923 8.60203 2.19174 10.7062 1.32017C12.8104 0.448592 15.0656 -2.18496e-06 17.3431 -1.8863e-06C19.6207 -1.58764e-06 21.8759 0.448592 23.9801 1.32017C26.0842 2.19174 27.9961 3.46923 29.6066 5.07969C31.2171 6.69015 32.4945 8.60204 33.3661 10.7062C34.2377 12.8104 34.6863 15.0656 34.6863 17.3431L26.0147 17.3431C26.0147 16.2044 25.7904 15.0768 25.3546 14.0247C24.9188 12.9726 24.2801 12.0166 23.4749 11.2114C22.6696 10.4062 21.7137 9.76744 20.6616 9.33166C19.6095 8.89587 18.4819 8.67157 17.3431 8.67157C16.2044 8.67157 15.0768 8.89587 14.0247 9.33166C12.9726 9.76744 12.0166 10.4062 11.2114 11.2114C10.4062 12.0166 9.76743 12.9726 9.33164 14.0247C8.89586 15.0768 8.67156 16.2044 8.67156 17.3431L-1.2517e-05 17.3431Z" fill="#6653B6"/>
<path fill-rule="evenodd" clip-rule="evenodd" d="M11.405 31.6795C10.0871 31.1336 8.85355 30.4098 7.73779 29.5304L11.3246 25.9435C11.9485 26.3801 12.6194 26.7485 13.3262 27.0412C14.5997 27.5688 15.9648 27.8403 17.3433 27.8403C18.7218 27.8403 20.0868 27.5688 21.3604 27.0412C22.0671 26.7485 22.7381 26.3801 23.3619 25.9435L26.9487 29.5304C25.833 30.4098 24.5994 31.1336 23.2816 31.6795C21.3989 32.4593 19.3811 32.8607 17.3433 32.8607C15.3055 32.8607 13.2876 32.4593 11.405 31.6795ZM28.2477 30.8293C28.721 30.4466 29.1747 30.0386 29.6067 29.6066L23.475 23.4748C22.6698 24.2801 21.7138 24.9188 20.6617 25.3546C19.6096 25.7904 18.482 26.0147 17.3433 26.0147C16.2045 26.0147 15.0769 25.7904 14.0248 25.3546C12.9727 24.9188 12.0168 24.2801 11.2115 23.4748L5.07981 29.6066C5.51182 30.0386 5.96553 30.4466 6.43883 30.8293C7.72986 31.8732 9.16662 32.7283 10.7063 33.3661C12.8105 34.2377 15.0657 34.6863 17.3433 34.6863C19.6208 34.6863 21.876 34.2377 23.9802 33.3661C25.5199 32.7283 26.9567 31.8732 28.2477 30.8293Z" fill="#6653B6"/>
</svg>
