<svg width="24" height="22" viewBox="0 0 24 22" fill="none" xmlns="http://www.w3.org/2000/svg">
<path d="M22.8334 7.20836H20.1629L16.1546 1.19044C15.9952 0.951395 15.7473 0.785484 15.4655 0.729207C15.1837 0.672931 14.8911 0.730899 14.652 0.890361C14.413 1.04982 14.2471 1.29771 14.1908 1.5795C14.1345 1.86129 14.1925 2.1539 14.3519 2.39294L17.5597 7.20836H6.44037L9.65137 2.39294C9.81083 2.1539 9.8688 1.86129 9.81252 1.5795C9.75625 1.29771 9.59033 1.04982 9.35129 0.890361C9.11224 0.730899 8.81963 0.672931 8.53785 0.729207C8.25606 0.785484 8.00816 0.951395 7.8487 1.19044L3.83712 7.20836H1.16671C0.879389 7.20836 0.603839 7.3225 0.400675 7.52566C0.19751 7.72883 0.083374 8.00438 0.083374 8.29169C0.083374 8.57901 0.19751 8.85456 0.400675 9.05772C0.603839 9.26089 0.879389 9.37503 1.16671 9.37503H2.25004V18.0417C2.25004 18.9036 2.59245 19.7303 3.20194 20.3398C3.81143 20.9493 4.63808 21.2917 5.50004 21.2917H18.5C19.362 21.2917 20.1886 20.9493 20.7981 20.3398C21.4076 19.7303 21.75 18.9036 21.75 18.0417V9.37503H22.8334C23.1207 9.37503 23.3962 9.26089 23.5994 9.05772C23.8026 8.85456 23.9167 8.57901 23.9167 8.29169C23.9167 8.00438 23.8026 7.72883 23.5994 7.52566C23.3962 7.3225 23.1207 7.20836 22.8334 7.20836ZM19.5834 18.0417C19.5834 18.329 19.4692 18.6046 19.2661 18.8077C19.0629 19.0109 18.7873 19.125 18.5 19.125H5.50004C5.21272 19.125 4.93717 19.0109 4.73401 18.8077C4.53084 18.6046 4.41671 18.329 4.41671 18.0417V9.37503H19.5834V18.0417Z" fill="#4D4D4D"/>
<path d="M7.66671 17.5C7.95402 17.5 8.22957 17.3859 8.43274 17.1827C8.6359 16.9795 8.75004 16.704 8.75004 16.4167V12.0833C8.75004 11.796 8.6359 11.5205 8.43274 11.3173C8.22957 11.1141 7.95402 11 7.66671 11C7.37939 11 7.10384 11.1141 6.90067 11.3173C6.69751 11.5205 6.58337 11.796 6.58337 12.0833V16.4167C6.58337 16.704 6.69751 16.9795 6.90067 17.1827C7.10384 17.3859 7.37939 17.5 7.66671 17.5Z" fill="#4D4D4D"/>
<path d="M12 17.5C12.2873 17.5 12.5628 17.3859 12.766 17.1827C12.9692 16.9795 13.0833 16.704 13.0833 16.4167V12.0833C13.0833 11.796 12.9692 11.5205 12.766 11.3173C12.5628 11.1141 12.2873 11 12 11C11.7126 11 11.4371 11.1141 11.2339 11.3173C11.0308 11.5205 10.9166 11.796 10.9166 12.0833V16.4167C10.9166 16.704 11.0308 16.9795 11.2339 17.1827C11.4371 17.3859 11.7126 17.5 12 17.5Z" fill="#4D4D4D"/>
<path d="M16.3333 17.5C16.6207 17.5 16.8962 17.3859 17.0994 17.1827C17.3025 16.9795 17.4167 16.704 17.4167 16.4167V12.0833C17.4167 11.796 17.3025 11.5205 17.0994 11.3173C16.8962 11.1141 16.6207 11 16.3333 11C16.046 11 15.7705 11.1141 15.5673 11.3173C15.3641 11.5205 15.25 11.796 15.25 12.0833V16.4167C15.25 16.704 15.3641 16.9795 15.5673 17.1827C15.7705 17.3859 16.046 17.5 16.3333 17.5Z" fill="#4D4D4D"/>
</svg>
