<svg width="20" height="21" viewBox="0 0 20 21" fill="none" xmlns="http://www.w3.org/2000/svg">
<path d="M20 10.5C20 16.299 15.5229 21 10 21C4.47714 21 0 16.299 0 10.5C0 4.70099 4.47714 0 10 0C15.5229 0 20 4.70099 20 10.5ZM8.84331 16.0597L16.2627 8.26934C16.5146 8.00481 16.5146 7.57588 16.2627 7.31134L15.3503 6.35335C15.0983 6.08877 14.6898 6.08877 14.4379 6.35335L8.3871 12.7066L5.56214 9.7404C5.3102 9.47587 4.90169 9.47587 4.64972 9.7404L3.73734 10.6984C3.4854 10.9629 3.4854 11.3919 3.73734 11.6564L7.93089 16.0596C8.18286 16.3242 8.59133 16.3242 8.84331 16.0597Z" fill="#C4C4C4"/>
</svg>
