<?xml version="1.0" standalone="no"?>
<!DOCTYPE svg PUBLIC "-//W3C//DTD SVG 20010904//EN"
 "http://www.w3.org/TR/2001/REC-SVG-20010904/DTD/svg10.dtd">
<svg version="1.0" xmlns="http://www.w3.org/2000/svg"
 width="480.000000pt" height="480.000000pt" viewBox="0 0 480.000000 480.000000"
 preserveAspectRatio="xMidYMid meet">

<g transform="translate(0.000000,480.000000) scale(0.100000,-0.100000)"
fill="#C4C4C4" stroke="none">
<path d="M2220 4790 c-493 -39 -980 -235 -1348 -543 -95 -80 -261 -248 -338
-342 -200 -244 -368 -579 -454 -906 -95 -360 -100 -778 -13 -1144 165 -698
637 -1291 1278 -1605 232 -113 484 -190 740 -226 162 -23 468 -23 630 0 804
113 1489 609 1840 1331 162 332 238 667 238 1045 0 372 -75 708 -232 1035
-146 305 -389 614 -646 822 -337 273 -744 452 -1165 512 -162 24 -386 32 -530
21z m698 -1507 l517 517 183 -182 182 -183 -517 -517 -518 -518 518 -518 517
-517 -182 -183 -183 -182 -517 517 -518 518 -518 -518 -517 -517 -183 182
-182 183 517 517 518 518 -518 518 -517 517 182 183 183 182 517 -517 518
-518 518 518z"/>
</g>
</svg>
