<svg width="198" height="36" viewBox="0 0 198 36" fill="none" xmlns="http://www.w3.org/2000/svg">
    <path d="M53.616 1.824H32.976V35.52H53.616V28.944H41.184V21.552H52.176V15.216H41.184V8.4H53.616V1.824Z" fill="#383838"/>
    <path d="M58.9448 35.52H67.1528V0H58.9448V35.52Z" fill="#383838"/>
    <path d="M84.909 14.928C87.645 14.928 89.949 16.608 89.949 19.536H79.677C80.157 16.56 82.221 14.928 84.909 14.928ZM97.725 26.64H88.989C88.317 28.08 87.021 29.232 84.717 29.232C82.077 29.232 79.917 27.6 79.629 24.096H98.205C98.301 23.28 98.349 22.464 98.349 21.696C98.349 13.536 92.829 8.352 85.005 8.352C77.037 8.352 71.469 13.632 71.469 22.128C71.469 30.624 77.133 35.904 85.005 35.904C91.677 35.904 96.429 31.872 97.725 26.64Z" fill="#383838"/>
    <path d="M118.519 35.52H127.735L118.519 22.224L127.495 8.736H118.615L114.295 16.128L109.159 8.736H99.9431L109.015 21.84L100.183 35.52H109.063L113.383 28.08L118.519 35.52Z" fill="#383838"/>
    <path d="M132.194 26.208C132.194 33.168 136.082 35.52 141.65 35.52H145.826V28.56H142.898C141.074 28.56 140.402 27.888 140.402 26.304V15.552H145.778V8.736H140.402V2.208H132.194V8.736H128.93V15.552H132.194V26.208Z" fill="#383838"/>
    <path d="M158.606 23.088C158.606 18.48 160.862 17.136 164.75 17.136H167.006V8.448C163.406 8.448 160.478 10.368 158.606 13.2V8.736H150.398V35.52H158.606V23.088Z" fill="#383838"/>
    <path d="M169.297 22.08C169.297 30.528 174.529 35.904 181.057 35.904C185.041 35.904 187.873 34.08 189.361 31.728V35.52H197.569V8.736H189.361V12.528C187.921 10.176 185.089 8.352 181.105 8.352C174.529 8.352 169.297 13.632 169.297 22.08ZM189.361 22.128C189.361 26.4 186.625 28.752 183.505 28.752C180.433 28.752 177.649 26.352 177.649 22.08C177.649 17.808 180.433 15.504 183.505 15.504C186.625 15.504 189.361 17.856 189.361 22.128Z" fill="#383838"/>
    <path d="M19.4255 13.3125L11.8524 13.3125L14.648 4.94648C14.9105 3.9668 14.1558 3 13.1255 3L3.67565 3C2.88816 3 2.21879 3.57363 2.1138 4.34063L0.013819 19.8094C-0.110867 20.7375 0.624125 21.5625 1.57568 21.5625H9.36527L6.34 34.0986C6.10375 35.0783 6.86499 36 7.86904 36C8.42029 36 8.94528 35.7164 9.23403 35.2266L20.7839 15.6328C21.3942 14.608 20.6395 13.3125 19.4255 13.3125Z" fill="#FF7020"/>
</svg>
