<svg xmlns="http://www.w3.org/2000/svg" width="0" height="0" class="hidden">
    <symbol viewBox="0 0 24 22" id="basket">
        <path d="M22.8334 7.20836H20.1629L16.1546 1.19044C15.9952 0.951395 15.7473 0.785484 15.4655 0.729207C15.1837 0.672931 14.8911 0.730899 14.652 0.890361C14.413 1.04982 14.2471 1.29771 14.1908 1.5795C14.1345 1.86129 14.1925 2.1539 14.3519 2.39294L17.5597 7.20836H6.44037L9.65137 2.39294C9.81083 2.1539 9.8688 1.86129 9.81252 1.5795C9.75625 1.29771 9.59033 1.04982 9.35129 0.890361C9.11224 0.730899 8.81963 0.672931 8.53785 0.729207C8.25606 0.785484 8.00816 0.951395 7.8487 1.19044L3.83712 7.20836H1.16671C0.879389 7.20836 0.603839 7.3225 0.400675 7.52566C0.19751 7.72883 0.083374 8.00438 0.083374 8.29169C0.083374 8.57901 0.19751 8.85456 0.400675 9.05772C0.603839 9.26089 0.879389 9.37503 1.16671 9.37503H2.25004V18.0417C2.25004 18.9036 2.59245 19.7303 3.20194 20.3398C3.81143 20.9493 4.63808 21.2917 5.50004 21.2917H18.5C19.362 21.2917 20.1886 20.9493 20.7981 20.3398C21.4076 19.7303 21.75 18.9036 21.75 18.0417V9.37503H22.8334C23.1207 9.37503 23.3962 9.26089 23.5994 9.05772C23.8026 8.85456 23.9167 8.57901 23.9167 8.29169C23.9167 8.00438 23.8026 7.72883 23.5994 7.52566C23.3962 7.3225 23.1207 7.20836 22.8334 7.20836ZM19.5834 18.0417C19.5834 18.329 19.4692 18.6046 19.2661 18.8077C19.0629 19.0109 18.7873 19.125 18.5 19.125H5.50004C5.21272 19.125 4.93717 19.0109 4.73401 18.8077C4.53084 18.6046 4.41671 18.329 4.41671 18.0417V9.37503H19.5834V18.0417Z"
              fill="#4D4D4D"></path>
        <path d="M7.66671 17.5C7.95402 17.5 8.22957 17.3859 8.43274 17.1827C8.6359 16.9795 8.75004 16.704 8.75004 16.4167V12.0833C8.75004 11.796 8.6359 11.5205 8.43274 11.3173C8.22957 11.1141 7.95402 11 7.66671 11C7.37939 11 7.10384 11.1141 6.90067 11.3173C6.69751 11.5205 6.58337 11.796 6.58337 12.0833V16.4167C6.58337 16.704 6.69751 16.9795 6.90067 17.1827C7.10384 17.3859 7.37939 17.5 7.66671 17.5Z"
              fill="#4D4D4D"></path>
        <path d="M12 17.5C12.2873 17.5 12.5628 17.3859 12.766 17.1827C12.9692 16.9795 13.0833 16.704 13.0833 16.4167V12.0833C13.0833 11.796 12.9692 11.5205 12.766 11.3173C12.5628 11.1141 12.2873 11 12 11C11.7126 11 11.4371 11.1141 11.2339 11.3173C11.0308 11.5205 10.9166 11.796 10.9166 12.0833V16.4167C10.9166 16.704 11.0308 16.9795 11.2339 17.1827C11.4371 17.3859 11.7126 17.5 12 17.5Z"
              fill="#4D4D4D"></path>
        <path d="M16.3333 17.5C16.6207 17.5 16.8962 17.3859 17.0994 17.1827C17.3025 16.9795 17.4167 16.704 17.4167 16.4167V12.0833C17.4167 11.796 17.3025 11.5205 17.0994 11.3173C16.8962 11.1141 16.6207 11 16.3333 11C16.046 11 15.7705 11.1141 15.5673 11.3173C15.3641 11.5205 15.25 11.796 15.25 12.0833V16.4167C15.25 16.704 15.3641 16.9795 15.5673 17.1827C15.7705 17.3859 16.046 17.5 16.3333 17.5Z"
              fill="#4D4D4D"></path>
    </symbol>
    <symbol viewBox="0 0 18 20" id="fire">
        <path d="M13.0002 2C12.1645 2.75391 11.4099 3.54648 10.7413 4.34258C9.64607 2.87578 8.28804 1.38789 6.75 0C2.80205 3.56133 0 8.20156 0 11C0 15.9707 4.02951 20 9 20C13.9705 20 18 15.9707 18 11C18 8.91914 15.9115 4.62734 13.0002 2ZM12.2179 15.3066C11.3476 15.8988 10.2745 16.25 9.11491 16.25C6.21603 16.25 3.85714 14.3852 3.85714 11.3574C3.85714 9.84922 4.83388 8.52031 6.78174 6.25C7.06018 6.56172 10.7526 11.1461 10.7526 11.1461L13.1083 8.53359C13.2746 8.80117 13.4261 9.06289 13.5611 9.31367C14.66 11.3523 14.1963 13.9609 12.2179 15.3066Z"
              fill="#FF7020"></path>
    </symbol>
    <symbol viewBox="0 0 24 25" id="search">
        <path d="M23.6736 20.7516L18.9998 16.0781C18.7889 15.8672 18.5029 15.75 18.2029 15.75H17.4388C18.7326 14.0953 19.5014 12.0141 19.5014 9.75C19.5014 4.36406 15.137 0 9.75071 0C4.36438 0 0 4.36406 0 9.75C0 15.1359 4.36438 19.5 9.75071 19.5C12.0149 19.5 14.0963 18.7313 15.7512 17.4375V18.2016C15.7512 18.5016 15.8683 18.7875 16.0793 18.9984L20.7531 23.6719C21.1937 24.1125 21.9063 24.1125 22.3423 23.6719L23.6689 22.3453C24.1096 21.9047 24.1096 21.1922 23.6736 20.7516ZM9.75071 15.75C6.43641 15.75 3.75027 13.0688 3.75027 9.75C3.75027 6.43594 6.43172 3.75 9.75071 3.75C13.065 3.75 15.7512 6.43125 15.7512 9.75C15.7512 13.0641 13.0697 15.75 9.75071 15.75Z"
              fill="#FF7020"></path>
    </symbol>
    <symbol viewBox="0 0 20 21" id="select-all">
        <path d="M20 10.5C20 16.299 15.5229 21 10 21C4.47714 21 0 16.299 0 10.5C0 4.70099 4.47714 0 10 0C15.5229 0 20 4.70099 20 10.5ZM8.84331 16.0597L16.2627 8.26934C16.5146 8.00481 16.5146 7.57588 16.2627 7.31134L15.3503 6.35335C15.0983 6.08877 14.6898 6.08877 14.4379 6.35335L8.3871 12.7066L5.56214 9.7404C5.3102 9.47587 4.90169 9.47587 4.64972 9.7404L3.73734 10.6984C3.4854 10.9629 3.4854 11.3919 3.73734 11.6564L7.93089 16.0596C8.18286 16.3242 8.59133 16.3242 8.84331 16.0597Z"
              fill="#C4C4C4"/>
    </symbol>
    <symbol viewBox="0 0 20 19" id="show-1">
        <path d="M5.83332 1.01786V4.41071C5.83332 4.97287 5.41359 5.42857 4.89582 5.42857H0.9375C0.419727 5.42857 0 4.97287 0 4.41071V1.01786C0 0.455703 0.419727 0 0.9375 0H4.89582C5.41359 0 5.83332 0.455703 5.83332 1.01786ZM12.9167 11.1964V7.80357C12.9167 7.24142 12.497 6.78571 11.9792 6.78571H8.02082C7.50305 6.78571 7.08332 7.24142 7.08332 7.80357V11.1964C7.08332 11.7586 7.50305 12.2143 8.02082 12.2143H11.9791C12.497 12.2143 12.9167 11.7586 12.9167 11.1964ZM14.1667 1.01786V4.41071C14.1667 4.97287 14.5864 5.42857 15.1042 5.42857H19.0625C19.5803 5.42857 20 4.97287 20 4.41071V1.01786C20 0.455703 19.5803 0 19.0625 0H15.1042C14.5864 0 14.1667 0.455703 14.1667 1.01786ZM12.9167 4.41071V1.01786C12.9167 0.455703 12.497 0 11.9792 0H8.02082C7.50305 0 7.08332 0.455703 7.08332 1.01786V4.41071C7.08332 4.97287 7.50305 5.42857 8.02082 5.42857H11.9791C12.497 5.42857 12.9167 4.97287 12.9167 4.41071ZM4.89582 6.78571H0.9375C0.419727 6.78571 0 7.24142 0 7.80357V11.1964C0 11.7586 0.419727 12.2143 0.9375 12.2143H4.89582C5.41359 12.2143 5.83332 11.7586 5.83332 11.1964V7.80357C5.83332 7.24142 5.41359 6.78571 4.89582 6.78571ZM0 14.5893V17.9821C0 18.5443 0.419727 19 0.9375 19H4.89582C5.41359 19 5.83332 18.5443 5.83332 17.9821V14.5893C5.83332 14.0271 5.41359 13.5714 4.89582 13.5714H0.9375C0.419727 13.5714 0 14.0271 0 14.5893ZM15.1042 12.2143H19.0625C19.5803 12.2143 20 11.7586 20 11.1964V7.80357C20 7.24142 19.5803 6.78571 19.0625 6.78571H15.1042C14.5864 6.78571 14.1667 7.24142 14.1667 7.80357V11.1964C14.1667 11.7586 14.5864 12.2143 15.1042 12.2143ZM15.1042 19H19.0625C19.5803 19 20 18.5443 20 17.9821V14.5893C20 14.0271 19.5803 13.5714 19.0625 13.5714H15.1042C14.5864 13.5714 14.1667 14.0271 14.1667 14.5893V17.9821C14.1667 18.5443 14.5864 19 15.1042 19ZM7.08332 14.5893V17.9821C7.08332 18.5443 7.50305 19 8.02082 19H11.9791C12.4969 19 12.9166 18.5443 12.9166 17.9821V14.5893C12.9166 14.0271 12.4969 13.5714 11.9791 13.5714H8.02082C7.50305 13.5714 7.08332 14.0271 7.08332 14.5893Z"
              fill="#FF7020"/>
    </symbol>
    <symbol viewBox="0 0 19 18" id="show-2">
        <path d="M5.54165 7.39286V10.6071C5.54165 11.1397 5.14291 11.5714 4.65103 11.5714H0.890625C0.39874 11.5714 0 11.1397 0 10.6071V7.39286C0 6.86029 0.39874 6.42857 0.890625 6.42857H4.65103C5.14291 6.42857 5.54165 6.86029 5.54165 7.39286ZM0 13.8214V17.0357C0 17.5683 0.39874 18 0.890625 18H4.65103C5.14291 18 5.54165 17.5683 5.54165 17.0357V13.8214C5.54165 13.2889 5.14291 12.8571 4.65103 12.8571H0.890625C0.39874 12.8571 0 13.2889 0 13.8214ZM4.65103 0H0.890625C0.39874 0 0 0.431719 0 0.964286V4.17857C0 4.71114 0.39874 5.14286 0.890625 5.14286H4.65103C5.14291 5.14286 5.54165 4.71114 5.54165 4.17857V0.964286C5.54165 0.431719 5.14291 0 4.65103 0ZM7.61978 18H18.1094C18.6013 18 19 17.5683 19 17.0357V13.8214C19 13.2889 18.6013 12.8571 18.1094 12.8571H7.61978C7.12789 12.8571 6.72915 13.2889 6.72915 13.8214V17.0357C6.72915 17.5683 7.12789 18 7.61978 18ZM6.72915 0.964286V4.17857C6.72915 4.71114 7.12789 5.14286 7.61978 5.14286H18.1094C18.6013 5.14286 19 4.71114 19 4.17857V0.964286C19 0.431719 18.6013 0 18.1094 0H7.61978C7.12789 0 6.72915 0.431719 6.72915 0.964286ZM7.61978 11.5714H18.1094C18.6013 11.5714 19 11.1397 19 10.6071V7.39286C19 6.86029 18.6013 6.42857 18.1094 6.42857H7.61978C7.12789 6.42857 6.72915 6.86029 6.72915 7.39286V10.6071C6.72915 11.1397 7.12789 11.5714 7.61978 11.5714Z"
              fill="#D2D2D2"/>
    </symbol>
</svg>