<svg xmlns="http://www.w3.org/2000/svg" width="0" height="0" class="hidden">
    <symbol viewBox="0 0 24 22" id="basket">
        <path d="M22.8334 7.20836H20.1629L16.1546 1.19044C15.9952 0.951395 15.7473 0.785484 15.4655 0.729207C15.1837 0.672931 14.8911 0.730899 14.652 0.890361C14.413 1.04982 14.2471 1.29771 14.1908 1.5795C14.1345 1.86129 14.1925 2.1539 14.3519 2.39294L17.5597 7.20836H6.44037L9.65137 2.39294C9.81083 2.1539 9.8688 1.86129 9.81252 1.5795C9.75625 1.29771 9.59033 1.04982 9.35129 0.890361C9.11224 0.730899 8.81963 0.672931 8.53785 0.729207C8.25606 0.785484 8.00816 0.951395 7.8487 1.19044L3.83712 7.20836H1.16671C0.879389 7.20836 0.603839 7.3225 0.400675 7.52566C0.19751 7.72883 0.083374 8.00438 0.083374 8.29169C0.083374 8.57901 0.19751 8.85456 0.400675 9.05772C0.603839 9.26089 0.879389 9.37503 1.16671 9.37503H2.25004V18.0417C2.25004 18.9036 2.59245 19.7303 3.20194 20.3398C3.81143 20.9493 4.63808 21.2917 5.50004 21.2917H18.5C19.362 21.2917 20.1886 20.9493 20.7981 20.3398C21.4076 19.7303 21.75 18.9036 21.75 18.0417V9.37503H22.8334C23.1207 9.37503 23.3962 9.26089 23.5994 9.05772C23.8026 8.85456 23.9167 8.57901 23.9167 8.29169C23.9167 8.00438 23.8026 7.72883 23.5994 7.52566C23.3962 7.3225 23.1207 7.20836 22.8334 7.20836ZM19.5834 18.0417C19.5834 18.329 19.4692 18.6046 19.2661 18.8077C19.0629 19.0109 18.7873 19.125 18.5 19.125H5.50004C5.21272 19.125 4.93717 19.0109 4.73401 18.8077C4.53084 18.6046 4.41671 18.329 4.41671 18.0417V9.37503H19.5834V18.0417Z"
              fill="#4D4D4D"></path>
        <path d="M7.66671 17.5C7.95402 17.5 8.22957 17.3859 8.43274 17.1827C8.6359 16.9795 8.75004 16.704 8.75004 16.4167V12.0833C8.75004 11.796 8.6359 11.5205 8.43274 11.3173C8.22957 11.1141 7.95402 11 7.66671 11C7.37939 11 7.10384 11.1141 6.90067 11.3173C6.69751 11.5205 6.58337 11.796 6.58337 12.0833V16.4167C6.58337 16.704 6.69751 16.9795 6.90067 17.1827C7.10384 17.3859 7.37939 17.5 7.66671 17.5Z"
              fill="#4D4D4D"></path>
        <path d="M12 17.5C12.2873 17.5 12.5628 17.3859 12.766 17.1827C12.9692 16.9795 13.0833 16.704 13.0833 16.4167V12.0833C13.0833 11.796 12.9692 11.5205 12.766 11.3173C12.5628 11.1141 12.2873 11 12 11C11.7126 11 11.4371 11.1141 11.2339 11.3173C11.0308 11.5205 10.9166 11.796 10.9166 12.0833V16.4167C10.9166 16.704 11.0308 16.9795 11.2339 17.1827C11.4371 17.3859 11.7126 17.5 12 17.5Z"
              fill="#4D4D4D"></path>
        <path d="M16.3333 17.5C16.6207 17.5 16.8962 17.3859 17.0994 17.1827C17.3025 16.9795 17.4167 16.704 17.4167 16.4167V12.0833C17.4167 11.796 17.3025 11.5205 17.0994 11.3173C16.8962 11.1141 16.6207 11 16.3333 11C16.046 11 15.7705 11.1141 15.5673 11.3173C15.3641 11.5205 15.25 11.796 15.25 12.0833V16.4167C15.25 16.704 15.3641 16.9795 15.5673 17.1827C15.7705 17.3859 16.046 17.5 16.3333 17.5Z"
              fill="#4D4D4D"></path>
    </symbol>
    <symbol viewBox="0 0 18 20" id="fire">
        <path d="M13.0002 2C12.1645 2.75391 11.4099 3.54648 10.7413 4.34258C9.64607 2.87578 8.28804 1.38789 6.75 0C2.80205 3.56133 0 8.20156 0 11C0 15.9707 4.02951 20 9 20C13.9705 20 18 15.9707 18 11C18 8.91914 15.9115 4.62734 13.0002 2ZM12.2179 15.3066C11.3476 15.8988 10.2745 16.25 9.11491 16.25C6.21603 16.25 3.85714 14.3852 3.85714 11.3574C3.85714 9.84922 4.83388 8.52031 6.78174 6.25C7.06018 6.56172 10.7526 11.1461 10.7526 11.1461L13.1083 8.53359C13.2746 8.80117 13.4261 9.06289 13.5611 9.31367C14.66 11.3523 14.1963 13.9609 12.2179 15.3066Z"
              fill="#FF7020"></path>
    </symbol>
    <symbol viewBox="0 0 24 25" id="search">
        <path d="M23.6736 20.7516L18.9998 16.0781C18.7889 15.8672 18.5029 15.75 18.2029 15.75H17.4388C18.7326 14.0953 19.5014 12.0141 19.5014 9.75C19.5014 4.36406 15.137 0 9.75071 0C4.36438 0 0 4.36406 0 9.75C0 15.1359 4.36438 19.5 9.75071 19.5C12.0149 19.5 14.0963 18.7313 15.7512 17.4375V18.2016C15.7512 18.5016 15.8683 18.7875 16.0793 18.9984L20.7531 23.6719C21.1937 24.1125 21.9063 24.1125 22.3423 23.6719L23.6689 22.3453C24.1096 21.9047 24.1096 21.1922 23.6736 20.7516ZM9.75071 15.75C6.43641 15.75 3.75027 13.0688 3.75027 9.75C3.75027 6.43594 6.43172 3.75 9.75071 3.75C13.065 3.75 15.7512 6.43125 15.7512 9.75C15.7512 13.0641 13.0697 15.75 9.75071 15.75Z"
              fill="#FF7020"></path>
    </symbol>
    <symbol viewBox="0 0 20 21" id="select-all">
        <path d="M20 10.5C20 16.299 15.5229 21 10 21C4.47714 21 0 16.299 0 10.5C0 4.70099 4.47714 0 10 0C15.5229 0 20 4.70099 20 10.5ZM8.84331 16.0597L16.2627 8.26934C16.5146 8.00481 16.5146 7.57588 16.2627 7.31134L15.3503 6.35335C15.0983 6.08877 14.6898 6.08877 14.4379 6.35335L8.3871 12.7066L5.56214 9.7404C5.3102 9.47587 4.90169 9.47587 4.64972 9.7404L3.73734 10.6984C3.4854 10.9629 3.4854 11.3919 3.73734 11.6564L7.93089 16.0596C8.18286 16.3242 8.59133 16.3242 8.84331 16.0597Z"
              fill="#C4C4C4"/>
    </symbol>
    <symbol viewBox="0 0 20 19" id="show-1">
        <path d="M5.83332 1.01786V4.41071C5.83332 4.97287 5.41359 5.42857 4.89582 5.42857H0.9375C0.419727 5.42857 0 4.97287 0 4.41071V1.01786C0 0.455703 0.419727 0 0.9375 0H4.89582C5.41359 0 5.83332 0.455703 5.83332 1.01786ZM12.9167 11.1964V7.80357C12.9167 7.24142 12.497 6.78571 11.9792 6.78571H8.02082C7.50305 6.78571 7.08332 7.24142 7.08332 7.80357V11.1964C7.08332 11.7586 7.50305 12.2143 8.02082 12.2143H11.9791C12.497 12.2143 12.9167 11.7586 12.9167 11.1964ZM14.1667 1.01786V4.41071C14.1667 4.97287 14.5864 5.42857 15.1042 5.42857H19.0625C19.5803 5.42857 20 4.97287 20 4.41071V1.01786C20 0.455703 19.5803 0 19.0625 0H15.1042C14.5864 0 14.1667 0.455703 14.1667 1.01786ZM12.9167 4.41071V1.01786C12.9167 0.455703 12.497 0 11.9792 0H8.02082C7.50305 0 7.08332 0.455703 7.08332 1.01786V4.41071C7.08332 4.97287 7.50305 5.42857 8.02082 5.42857H11.9791C12.497 5.42857 12.9167 4.97287 12.9167 4.41071ZM4.89582 6.78571H0.9375C0.419727 6.78571 0 7.24142 0 7.80357V11.1964C0 11.7586 0.419727 12.2143 0.9375 12.2143H4.89582C5.41359 12.2143 5.83332 11.7586 5.83332 11.1964V7.80357C5.83332 7.24142 5.41359 6.78571 4.89582 6.78571ZM0 14.5893V17.9821C0 18.5443 0.419727 19 0.9375 19H4.89582C5.41359 19 5.83332 18.5443 5.83332 17.9821V14.5893C5.83332 14.0271 5.41359 13.5714 4.89582 13.5714H0.9375C0.419727 13.5714 0 14.0271 0 14.5893ZM15.1042 12.2143H19.0625C19.5803 12.2143 20 11.7586 20 11.1964V7.80357C20 7.24142 19.5803 6.78571 19.0625 6.78571H15.1042C14.5864 6.78571 14.1667 7.24142 14.1667 7.80357V11.1964C14.1667 11.7586 14.5864 12.2143 15.1042 12.2143ZM15.1042 19H19.0625C19.5803 19 20 18.5443 20 17.9821V14.5893C20 14.0271 19.5803 13.5714 19.0625 13.5714H15.1042C14.5864 13.5714 14.1667 14.0271 14.1667 14.5893V17.9821C14.1667 18.5443 14.5864 19 15.1042 19ZM7.08332 14.5893V17.9821C7.08332 18.5443 7.50305 19 8.02082 19H11.9791C12.4969 19 12.9166 18.5443 12.9166 17.9821V14.5893C12.9166 14.0271 12.4969 13.5714 11.9791 13.5714H8.02082C7.50305 13.5714 7.08332 14.0271 7.08332 14.5893Z"
              fill="#FF7020"/>
    </symbol>
    <symbol viewBox="0 0 19 18" id="show-2">
        <path d="M5.54165 7.39286V10.6071C5.54165 11.1397 5.14291 11.5714 4.65103 11.5714H0.890625C0.39874 11.5714 0 11.1397 0 10.6071V7.39286C0 6.86029 0.39874 6.42857 0.890625 6.42857H4.65103C5.14291 6.42857 5.54165 6.86029 5.54165 7.39286ZM0 13.8214V17.0357C0 17.5683 0.39874 18 0.890625 18H4.65103C5.14291 18 5.54165 17.5683 5.54165 17.0357V13.8214C5.54165 13.2889 5.14291 12.8571 4.65103 12.8571H0.890625C0.39874 12.8571 0 13.2889 0 13.8214ZM4.65103 0H0.890625C0.39874 0 0 0.431719 0 0.964286V4.17857C0 4.71114 0.39874 5.14286 0.890625 5.14286H4.65103C5.14291 5.14286 5.54165 4.71114 5.54165 4.17857V0.964286C5.54165 0.431719 5.14291 0 4.65103 0ZM7.61978 18H18.1094C18.6013 18 19 17.5683 19 17.0357V13.8214C19 13.2889 18.6013 12.8571 18.1094 12.8571H7.61978C7.12789 12.8571 6.72915 13.2889 6.72915 13.8214V17.0357C6.72915 17.5683 7.12789 18 7.61978 18ZM6.72915 0.964286V4.17857C6.72915 4.71114 7.12789 5.14286 7.61978 5.14286H18.1094C18.6013 5.14286 19 4.71114 19 4.17857V0.964286C19 0.431719 18.6013 0 18.1094 0H7.61978C7.12789 0 6.72915 0.431719 6.72915 0.964286ZM7.61978 11.5714H18.1094C18.6013 11.5714 19 11.1397 19 10.6071V7.39286C19 6.86029 18.6013 6.42857 18.1094 6.42857H7.61978C7.12789 6.42857 6.72915 6.86029 6.72915 7.39286V10.6071C6.72915 11.1397 7.12789 11.5714 7.61978 11.5714Z"
              fill="#D2D2D2"/>
    </symbol>
    <symbol viewBox="0 0 25 19" id="youtube">
        <path d="M24.4776 3.01659C24.1901 1.90799 23.3429 1.0349 22.2673 0.738602C20.3177 0.200195 12.5 0.200195 12.5 0.200195C12.5 0.200195 4.68232 0.200195 2.73266 0.738602C1.65706 1.03495 0.80992 1.90799 0.522399 3.01659C0 5.02598 0 9.21838 0 9.21838C0 9.21838 0 13.4108 0.522399 15.4202C0.80992 16.5288 1.65706 17.3655 2.73266 17.6618C4.68232 18.2002 12.5 18.2002 12.5 18.2002C12.5 18.2002 20.3177 18.2002 22.2673 17.6618C23.3429 17.3655 24.1901 16.5288 24.4776 15.4202C25 13.4108 25 9.21838 25 9.21838C25 9.21838 25 5.02598 24.4776 3.01659ZM9.94316 13.0248V5.41199L16.4772 9.21848L9.94316 13.0248Z"
              fill="currentColor"/>
    </symbol>

    <symbol viewBox="0 0 20 20" id="youtube">
        <path d="M17.8286 0.799805H1.36714C0.612857 0.799805 0 1.39534 0 2.12641V17.8732C0 18.6043 0.612857 19.1998 1.36714 19.1998H17.8286C18.5829 19.1998 19.2 18.6043 19.2 17.8732V2.12641C19.2 1.39534 18.5829 0.799805 17.8286 0.799805ZM5.80286 16.5712H2.95714V7.79016H5.80714V16.5712H5.80286ZM4.38 6.59088C3.46714 6.59088 2.73 5.88034 2.73 5.00963C2.73 4.13891 3.46714 3.42838 4.38 3.42838C5.28857 3.42838 6.03 4.13891 6.03 5.00963C6.03 5.88445 5.29286 6.59088 4.38 6.59088ZM16.47 16.5712H13.6243V12.2998C13.6243 11.2812 13.6029 9.97105 12.1457 9.97105C10.6629 9.97105 10.4357 11.08 10.4357 12.2259V16.5712H7.59V7.79016H10.32V8.98945H10.3586C10.74 8.29945 11.67 7.57248 13.0543 7.57248C15.9343 7.57248 16.47 9.39195 16.47 11.7577V16.5712Z"
              fill="currentColor"/>
    </symbol>

    <symbol viewBox="0 0 20 20" id="linkid">
        <path d="M17.8286 0.799805H1.36714C0.612857 0.799805 0 1.39534 0 2.12641V17.8732C0 18.6043 0.612857 19.1998 1.36714 19.1998H17.8286C18.5829 19.1998 19.2 18.6043 19.2 17.8732V2.12641C19.2 1.39534 18.5829 0.799805 17.8286 0.799805ZM5.80286 16.5712H2.95714V7.79016H5.80714V16.5712H5.80286ZM4.38 6.59088C3.46714 6.59088 2.73 5.88034 2.73 5.00963C2.73 4.13891 3.46714 3.42838 4.38 3.42838C5.28857 3.42838 6.03 4.13891 6.03 5.00963C6.03 5.88445 5.29286 6.59088 4.38 6.59088ZM16.47 16.5712H13.6243V12.2998C13.6243 11.2812 13.6029 9.97105 12.1457 9.97105C10.6629 9.97105 10.4357 11.08 10.4357 12.2259V16.5712H7.59V7.79016H10.32V8.98945H10.3586C10.74 8.29945 11.67 7.57248 13.0543 7.57248C15.9343 7.57248 16.47 9.39195 16.47 11.7577V16.5712Z"
              fill="currentColor"/>
    </symbol>
    <symbol viewBox="0 0 18 16" id="twitter">
        <path d="M15.7908 4.0894C15.802 4.25995 15.802 4.43054 15.802 4.60109C15.802 9.80309 12.1726 15.797 5.53908 15.797C3.49542 15.797 1.59696 15.1513 0 14.0305C0.290366 14.0671 0.569525 14.0793 0.871063 14.0793C2.55733 14.0793 4.10963 13.458 5.34923 12.3981C3.76344 12.3615 2.43451 11.2285 1.97663 9.6691C2.2 9.70563 2.42333 9.73 2.65788 9.73C2.98172 9.73 3.3056 9.68125 3.60711 9.59601C1.95432 9.2305 0.714691 7.64676 0.714691 5.73408V5.68536C1.19488 5.97775 1.7533 6.16049 2.34513 6.18483C1.37356 5.47821 0.737034 4.27214 0.737034 2.90766C0.737034 2.17671 0.915681 1.50666 1.22839 0.921888C3.00403 3.3097 5.67308 4.86906 8.66594 5.03965C8.61011 4.74726 8.5766 4.44273 8.5766 4.13815C8.5766 1.9696 10.1847 0.203125 12.1837 0.203125C13.2223 0.203125 14.1603 0.67825 14.8192 1.44576C15.6344 1.27521 16.4162 0.946263 17.1086 0.495513C16.8405 1.40924 16.271 2.17675 15.5228 2.66403C16.2487 2.57879 16.9522 2.35945 17.5999 2.05491C17.1086 2.83458 16.4944 3.52896 15.7908 4.0894Z"
              fill="currentColor"/>


    </symbol>
    <symbol viewBox="0 0 10 18" id="facebook">
        <path d="M8.9709 10.1002L9.46872 6.91501H6.35612V4.84804C6.35612 3.97663 6.79093 3.12723 8.18496 3.12723H9.6V0.415383C9.6 0.415383 8.31589 0.200195 7.08815 0.200195C4.52483 0.200195 2.84933 1.72576 2.84933 4.48745V6.91501H0V10.1002H2.84933V17.8002H6.35612V10.1002H8.9709Z"
              fill="currentColor"/>

    </symbol>
    <symbol viewBox="0 0 18 18" id="instagram">
        <path d="M8.80196 4.48778C6.30479 4.48778 4.29055 6.50246 4.29055 9.0002C4.29055 11.4979 6.30479 13.5126 8.80196 13.5126C11.2991 13.5126 13.3134 11.4979 13.3134 9.0002C13.3134 6.50246 11.2991 4.48778 8.80196 4.48778ZM8.80196 11.9339C7.18822 11.9339 5.86896 10.6182 5.86896 9.0002C5.86896 7.38217 7.18429 6.06653 8.80196 6.06653C10.4196 6.06653 11.735 7.38217 11.735 9.0002C11.735 10.6182 10.4157 11.9339 8.80196 11.9339ZM14.5502 4.3032C14.5502 4.88836 14.079 5.3557 13.4979 5.3557C12.9129 5.3557 12.4456 4.88443 12.4456 4.3032C12.4456 3.72196 12.9168 3.25069 13.4979 3.25069C14.079 3.25069 14.5502 3.72196 14.5502 4.3032ZM17.5382 5.37141C17.4714 3.96153 17.1494 2.71266 16.1168 1.68372C15.0881 0.654775 13.8395 0.33274 12.4299 0.26205C10.9772 0.179577 6.62282 0.179577 5.17006 0.26205C3.76442 0.328813 2.51583 0.650848 1.48319 1.67979C0.450552 2.70873 0.132515 3.9576 0.0618405 5.36748C-0.0206135 6.82057 -0.0206135 11.1759 0.0618405 12.629C0.128589 14.0389 0.450552 15.2877 1.48319 16.3167C2.51583 17.3456 3.76049 17.6677 5.17006 17.7383C6.62282 17.8208 10.9772 17.8208 12.4299 17.7383C13.8395 17.6716 15.0881 17.3495 16.1168 16.3167C17.1455 15.2877 17.4675 14.0389 17.5382 12.629C17.6206 11.1759 17.6206 6.8245 17.5382 5.37141ZM15.6613 14.1881C15.3551 14.9578 14.7622 15.5509 13.9887 15.8611C12.8304 16.3206 10.082 16.2146 8.80196 16.2146C7.52196 16.2146 4.76957 16.3167 3.61521 15.8611C2.84564 15.5548 2.25276 14.9618 1.94258 14.1881C1.48319 13.0296 1.5892 10.2805 1.5892 9.0002C1.5892 7.71991 1.48712 4.9669 1.94258 3.81229C2.24883 3.04255 2.84172 2.44953 3.61521 2.13928C4.7735 1.67979 7.52196 1.78583 8.80196 1.78583C10.082 1.78583 12.8344 1.68372 13.9887 2.13928C14.7583 2.4456 15.3512 3.03862 15.6613 3.81229C16.1207 4.97083 16.0147 7.71991 16.0147 9.0002C16.0147 10.2805 16.1207 13.0335 15.6613 14.1881Z"
              fill="currentColor"/>
    </symbol>
    <symbol  viewBox="0 0 48 51" id="footer-address">
        <path d="M18 20.7188C18 18.9587 16.6566 17.5312 15 17.5312H13.5C10.1859 17.5312 7.5 20.3851 7.5 23.9062V28.6875C7.5 32.2087 10.1859 35.0625 13.5 35.0625H15C16.6566 35.0625 18 33.6351 18 31.875V20.7188ZM34.5 35.0625C37.8141 35.0625 40.5 32.2087 40.5 28.6875V23.9062C40.5 20.3851 37.8141 17.5312 34.5 17.5312H33C31.3434 17.5312 30 18.9587 30 20.7188V31.875C30 33.6351 31.3434 35.0625 33 35.0625H34.5ZM24 0C10.6106 0 0.429375 11.8366 0 25.5V27.0938C0 27.9743 0.67125 28.6875 1.5 28.6875H3C3.82875 28.6875 4.5 27.9743 4.5 27.0938V25.5C4.5 14.0758 13.2478 4.78125 24 4.78125C34.7522 4.78125 43.5 14.0758 43.5 25.5H43.4888C43.4963 25.7421 43.5 42.0073 43.5 42.0073C43.5 44.3331 41.7253 46.2188 39.5363 46.2188H30C30 43.5781 27.9853 41.4375 25.5 41.4375H22.5C20.0147 41.4375 18 43.5781 18 46.2188C18 48.8594 20.0147 51 22.5 51H39.5363C44.2106 51 48 46.9738 48 42.0073V25.5C47.5706 11.8366 37.3894 0 24 0Z" fill="#8D8D8D"/>

    </symbol>
    <symbol viewBox="0 0 30 38" id="apply">
        <path d="M25.0824 20.0809C25.0664 16.9674 26.3895 14.6174 29.0675 12.8867C27.5691 10.6046 25.3055 9.34902 22.3167 9.10299C19.4872 8.86545 16.3948 10.8591 15.263 10.8591C14.0675 10.8591 11.3257 9.18783 9.17375 9.18783C4.72636 9.26418 0 12.9631 0 20.4881C0 22.7108 0.382572 25.0071 1.14772 27.3769C2.16791 30.4904 5.85016 38.1257 9.69182 37.9984C11.7003 37.9475 13.119 36.4798 15.7333 36.4798C18.2678 36.4798 19.5829 37.9984 21.8225 37.9984C25.6961 37.939 29.0276 30.9994 30 27.8774C24.8034 25.2729 25.0824 20.2421 25.0824 20.0809ZM20.5712 6.15067C22.7471 3.40196 22.5478 0.899271 22.4841 0C20.5632 0.118772 18.3395 1.39132 17.0723 2.96081C15.6775 4.64058 14.8565 6.71908 15.0319 9.06058C17.1121 9.23025 19.009 8.09344 20.5712 6.15067Z" fill="white"/>

    </symbol>
    <symbol viewBox="0 0 26 32" id="google">
        <path d="M16.9031 14.6466L4.46805 0.812659L20.2894 10.8896L16.9031 14.6466ZM1.22266 0C0.49019 0.425083 0 1.20023 0 2.20668V29.7933C0 30.7998 0.49019 31.5749 1.22266 32L15.6804 15.9969L1.22266 0ZM25.18 14.1028L21.8614 11.9711L18.1596 16.0031L21.8614 20.0352L25.2476 17.9035C26.2618 17.0096 26.2618 14.9967 25.18 14.1028ZM4.46805 31.1936L20.2894 21.1166L16.9031 17.3596L4.46805 31.1936Z" fill="white"/>

    </symbol>
</svg>